<?xml version="1.0" encoding="utf-8"?>
<!-- Generator: Adobe Illustrator 25.2.0, SVG Export Plug-In . SVG Version: 6.00 Build 0)  -->
<svg version="1.1" id="Layer_1" xmlns="http://www.w3.org/2000/svg" xmlns:xlink="http://www.w3.org/1999/xlink" x="0px" y="0px"
	 viewBox="0 0 512 512" style="enable-background:new 0 0 512 512;" xml:space="preserve">
<style type="text/css">
	.st0{fill:#AFB9D2;}
	.st1{fill:#00D7D7;}
	.st2{fill:#00BEBE;}
	.st3{fill:#E4EAF6;}
</style>
<g>
	<path class="st0" d="M167.7,512h-17.7c-4.9,0-8.8-4-8.8-8.8v-17.7h35.3v17.7C176.6,508,172.6,512,167.7,512z"/>
	<path class="st0" d="M361.9,512h-17.7c-4.9,0-8.8-4-8.8-8.8v-17.7h35.3v17.7C370.8,508,366.8,512,361.9,512z"/>
</g>
<path class="st1" d="M361.9,494.3H150.1c-9.8,0-17.7-7.9-17.7-17.7v-459c0-9.8,7.9-17.7,17.7-17.7h211.9c9.8,0,17.7,7.9,17.7,17.7
	v459C379.6,486.4,371.7,494.3,361.9,494.3z"/>
<rect x="132.4" y="158.9" class="st2" width="247.2" height="17.7"/>
<g>
	<path class="st3" d="M353.1,141.2h-70.6c-4.9,0-8.8-4-8.8-8.8l0,0c0-4.9,4-8.8,8.8-8.8h70.6c4.9,0,8.8,4,8.8,8.8l0,0
		C361.9,137.3,358,141.2,353.1,141.2z"/>
	<path class="st3" d="M282.5,194.2h70.6c4.9,0,8.8,4,8.8,8.8l0,0c0,4.9-4,8.8-8.8,8.8h-70.6c-4.9,0-8.8-4-8.8-8.8l0,0
		C273.7,198.2,277.6,194.2,282.5,194.2z"/>
</g>
<path class="st2" d="M132.4,476.7c0,9.8,7.9,17.7,17.7,17.7h211.9c9.8,0,17.7-7.9,17.7-17.7V459H132.4V476.7z"/>
</svg>
